<?xml version="1.0" encoding="UTF-8"?>
<!DOCTYPE svg PUBLIC "-//W3C//DTD SVG 1.1//EN" "http://www.w3.org/Graphics/SVG/1.1/DTD/svg11.dtd">
<svg xmlns="http://www.w3.org/2000/svg" version="1.1" width="320px" height="256px" style="shape-rendering:geometricPrecision; text-rendering:geometricPrecision; image-rendering:optimizeQuality; fill-rule:evenodd; clip-rule:evenodd" xmlns:xlink="http://www.w3.org/1999/xlink">
<g><path style="opacity:1" fill="#fef9fe" d="M -0.5,-0.5 C 106.167,-0.5 212.833,-0.5 319.5,-0.5C 319.5,84.8333 319.5,170.167 319.5,255.5C 212.833,255.5 106.167,255.5 -0.5,255.5C -0.5,170.167 -0.5,84.8333 -0.5,-0.5 Z"/></g>
<g><path style="opacity:1" fill="#fcf7fc" d="M 168.5,69.5 C 167.686,71.2726 166.352,71.7726 164.5,71C 166.107,69.951 166.773,68.451 166.5,66.5C 165.127,66.3433 163.793,66.51 162.5,67C 158.049,71.4249 152.716,73.9249 146.5,74.5C 149.705,68.2521 154.038,62.2521 159.5,56.5C 163.247,60.3313 166.247,64.6646 168.5,69.5 Z"/></g>
<g><path style="opacity:1" fill="#d8d5d9" d="M 173.5,68.5 C 171.708,68.366 170.042,68.6993 168.5,69.5C 166.247,64.6646 163.247,60.3313 159.5,56.5C 154.038,62.2521 149.705,68.2521 146.5,74.5C 146.5,74.8333 146.5,75.1667 146.5,75.5C 145.833,76.1667 145.167,76.8333 144.5,77.5C 142.364,77.4621 141.031,76.7954 140.5,75.5C 146.432,66.8958 152.766,58.5625 159.5,50.5C 164.542,56.2085 169.209,62.2085 173.5,68.5 Z"/></g>
<g><path style="opacity:1" fill="#bcb7be" d="M 175.5,71.5 C 177.167,72.5 178.5,73.8333 179.5,75.5C 176.821,75.4754 175.488,74.142 175.5,71.5 Z"/></g>
<g><path style="opacity:1" fill="#959496" d="M 140.5,75.5 C 141.031,76.7954 142.364,77.4621 144.5,77.5C 144.5,77.8333 144.5,78.1667 144.5,78.5C 144.167,78.5 143.833,78.5 143.5,78.5C 141.801,78.3398 140.134,78.5065 138.5,79C 136.7,80.8119 135.033,82.6452 133.5,84.5C 133.5,83.1667 133.5,81.8333 133.5,80.5C 136.306,79.293 136.972,77.293 135.5,74.5C 134.818,75.2427 134.151,75.9094 133.5,76.5C 135.312,68.7294 136.812,69.0628 138,77.5C 138.708,76.6195 139.542,75.9528 140.5,75.5 Z"/></g>
<g><path style="opacity:1" fill="#ad8ec9" d="M 188.5,88.5 C 186.983,88.5106 185.816,89.1772 185,90.5C 184.338,92.8127 183.838,95.146 183.5,97.5C 182.5,97.5 181.5,97.5 180.5,97.5C 181.412,93.8694 181.579,90.2027 181,86.5C 178.716,84.0155 176.216,83.8489 173.5,86C 170.96,88.2047 168.793,90.7047 167,93.5C 167.097,90.704 167.93,88.0374 169.5,85.5C 169.167,85.1667 168.833,84.8333 168.5,84.5C 166.625,88.15 164.958,91.8166 163.5,95.5C 161.439,96.6817 159.939,96.0151 159,93.5C 157.855,94.6843 156.688,94.6843 155.5,93.5C 156.207,90.2139 156.54,86.8806 156.5,83.5C 154.097,83.393 152.264,84.393 151,86.5C 148.667,90.1667 146.333,93.8333 144,97.5C 143.808,95.4233 143.308,93.4233 142.5,91.5C 141.081,92.0047 140.415,93.0047 140.5,94.5C 139.542,94.9528 138.708,95.6195 138,96.5C 137.667,95.1667 137.333,93.8333 137,92.5C 136.015,94.1749 135.181,95.8415 134.5,97.5C 134.167,97.5 133.833,97.5 133.5,97.5C 134.303,96.5768 134.47,95.5768 134,94.5C 131.534,95.7766 129.034,95.7766 126.5,94.5C 127.524,93.1482 128.524,91.8149 129.5,90.5C 129.5,90.1667 129.5,89.8333 129.5,89.5C 134.226,90.3829 138.226,89.2162 141.5,86C 141.272,85.6012 140.938,85.4346 140.5,85.5C 141.773,83.2872 142.773,80.9538 143.5,78.5C 143.833,78.5 144.167,78.5 144.5,78.5C 146.514,78.6085 148.18,77.9418 149.5,76.5C 150.222,76.9175 150.722,77.5842 151,78.5C 162.668,78.2767 174.002,78.2767 185,78.5C 185.278,77.5842 185.778,76.9175 186.5,76.5C 188.143,76.5198 189.476,75.8532 190.5,74.5C 192.289,75.8772 194.289,76.8772 196.5,77.5C 197.614,78.723 197.781,80.0563 197,81.5C 194.372,84.2105 191.539,86.5438 188.5,88.5 Z"/></g>
<g><path style="opacity:1" fill="#9e82c0" d="M 168.5,69.5 C 170.042,68.6993 171.708,68.366 173.5,68.5C 174.906,68.9731 175.573,69.9731 175.5,71.5C 175.488,74.142 176.821,75.4754 179.5,75.5C 179.435,75.9382 179.601,76.2716 180,76.5C 181.509,74.0807 183.675,73.0807 186.5,73.5C 186.5,74.5 186.5,75.5 186.5,76.5C 185.778,76.9175 185.278,77.5842 185,78.5C 174.002,78.2767 162.668,78.2767 151,78.5C 150.722,77.5842 150.222,76.9175 149.5,76.5C 148.791,75.596 147.791,75.2627 146.5,75.5C 146.5,75.1667 146.5,74.8333 146.5,74.5C 152.716,73.9249 158.049,71.4249 162.5,67C 163.793,66.51 165.127,66.3433 166.5,66.5C 166.773,68.451 166.107,69.951 164.5,71C 166.352,71.7726 167.686,71.2726 168.5,69.5 Z"/></g>
<g><path style="opacity:1" fill="#71637f" d="M 146.5,75.5 C 147.791,75.2627 148.791,75.596 149.5,76.5C 148.18,77.9418 146.514,78.6085 144.5,78.5C 144.5,78.1667 144.5,77.8333 144.5,77.5C 145.167,76.8333 145.833,76.1667 146.5,75.5 Z"/></g>
<g><path style="opacity:1" fill="#c2bfc3" d="M 133.5,80.5 C 132.167,79.1667 132.167,77.8333 133.5,76.5C 134.151,75.9094 134.818,75.2427 135.5,74.5C 136.972,77.293 136.306,79.293 133.5,80.5 Z"/></g>
<g><path style="opacity:1" fill="#ebe6ed" d="M 143.5,78.5 C 142.773,80.9538 141.773,83.2872 140.5,85.5C 139.833,85.5 139.167,85.5 138.5,85.5C 136.585,85.7845 134.919,85.4511 133.5,84.5C 135.033,82.6452 136.7,80.8119 138.5,79C 140.134,78.5065 141.801,78.3398 143.5,78.5 Z"/></g>
<g><path style="opacity:1" fill="#b4b1b5" d="M 129.5,88.5 C 129.5,88.8333 129.5,89.1667 129.5,89.5C 129.5,89.8333 129.5,90.1667 129.5,90.5C 127.883,91.038 126.216,91.3713 124.5,91.5C 123.387,90.0536 123.22,88.3869 124,86.5C 127.246,78.8105 129.079,79.4772 129.5,88.5 Z"/></g>
<g><path style="opacity:1" fill="#b2aeb4" d="M 133.5,84.5 C 134.919,85.4511 136.585,85.7845 138.5,85.5C 136.395,88.6665 134.062,88.9999 131.5,86.5C 131.833,85.5 132.5,84.8333 133.5,84.5 Z"/></g>
<g><path style="opacity:1" fill="#80728c" d="M 138.5,85.5 C 139.167,85.5 139.833,85.5 140.5,85.5C 140.938,85.4346 141.272,85.6012 141.5,86C 138.226,89.2162 134.226,90.3829 129.5,89.5C 129.5,89.1667 129.5,88.8333 129.5,88.5C 130.5,88.1667 131.167,87.5 131.5,86.5C 134.062,88.9999 136.395,88.6665 138.5,85.5 Z"/></g>
<g><path style="opacity:1" fill="#5b545f" d="M 155.5,93.5 C 153.857,98.7398 152.523,104.073 151.5,109.5C 150.507,112.144 149.507,114.81 148.5,117.5C 147.702,117.043 147.369,116.376 147.5,115.5C 150.918,105.823 153.084,95.8226 154,85.5C 149.672,90.8209 145.838,96.4875 142.5,102.5C 141.417,100.208 141.417,97.8749 142.5,95.5C 142.561,93.279 141.895,92.9456 140.5,94.5C 140.415,93.0047 141.081,92.0047 142.5,91.5C 143.308,93.4233 143.808,95.4233 144,97.5C 146.333,93.8333 148.667,90.1667 151,86.5C 152.264,84.393 154.097,83.393 156.5,83.5C 156.54,86.8806 156.207,90.2139 155.5,93.5 Z"/></g>
<g><path style="opacity:1" fill="#8f7d9a" d="M 129.5,90.5 C 128.524,91.8149 127.524,93.1482 126.5,94.5C 129.034,95.7766 131.534,95.7766 134,94.5C 134.47,95.5768 134.303,96.5768 133.5,97.5C 132.341,99.2503 130.674,100.25 128.5,100.5C 127.855,99.1882 126.855,98.1882 125.5,97.5C 124.358,98.8262 123.024,99.8262 121.5,100.5C 122.953,97.7024 123.953,94.7024 124.5,91.5C 126.216,91.3713 127.883,91.038 129.5,90.5 Z"/></g>
<g><path style="opacity:1" fill="#5e5662" d="M 140.5,94.5 C 138.976,98.2022 136.81,101.536 134,104.5C 133.666,102.153 133.833,99.8194 134.5,97.5C 135.181,95.8415 136.015,94.1749 137,92.5C 137.333,93.8333 137.667,95.1667 138,96.5C 138.708,95.6195 139.542,94.9528 140.5,94.5 Z"/></g>
<g><path style="opacity:1" fill="#d5d1d6" d="M 128.5,100.5 C 126.78,103.963 127.613,105.297 131,104.5C 132.718,105.031 132.885,105.698 131.5,106.5C 129.847,106.66 128.514,107.326 127.5,108.5C 125.147,106.14 123.147,103.473 121.5,100.5C 123.024,99.8262 124.358,98.8262 125.5,97.5C 126.855,98.1882 127.855,99.1882 128.5,100.5 Z"/></g>
<g><path style="opacity:1" fill="#ceaae0" d="M 155.5,93.5 C 156.688,94.6843 157.855,94.6843 159,93.5C 159.939,96.0151 161.439,96.6817 163.5,95.5C 162.405,100.784 160.739,105.784 158.5,110.5C 157.571,109.685 156.571,108.852 155.5,108C 157.158,107.275 157.658,106.108 157,104.5C 154.212,105.969 152.378,107.635 151.5,109.5C 152.523,104.073 153.857,98.7398 155.5,93.5 Z"/></g>
<g><path style="opacity:1" fill="#989699" d="M 197.5,99.5 C 196.752,101.332 195.752,102.999 194.5,104.5C 194.118,102.615 192.785,101.115 190.5,100C 192.81,99.5034 195.143,99.3367 197.5,99.5 Z"/></g>
<g><path style="opacity:1" fill="#887990" d="M 188.5,100.5 C 188.011,101.995 187.345,103.329 186.5,104.5C 185.624,104.631 184.957,104.298 184.5,103.5C 185.283,101.712 186.616,100.712 188.5,100.5 Z"/></g>
<g><path style="opacity:1" fill="#d3afe4" d="M 147.5,115.5 C 144.828,110.93 141.828,110.263 138.5,113.5C 137.833,112.833 137.167,112.167 136.5,111.5C 135.893,111.624 135.56,111.957 135.5,112.5C 133.782,110.777 132.449,108.777 131.5,106.5C 132.885,105.698 132.718,105.031 131,104.5C 127.613,105.297 126.78,103.963 128.5,100.5C 130.674,100.25 132.341,99.2503 133.5,97.5C 133.833,97.5 134.167,97.5 134.5,97.5C 133.833,99.8194 133.666,102.153 134,104.5C 136.81,101.536 138.976,98.2022 140.5,94.5C 141.895,92.9456 142.561,93.279 142.5,95.5C 141.417,97.8749 141.417,100.208 142.5,102.5C 145.838,96.4875 149.672,90.8209 154,85.5C 153.084,95.8226 150.918,105.823 147.5,115.5 Z"/></g>
<g><path style="opacity:1" fill="#d8b3e8" d="M 188.5,100.5 C 186.616,100.712 185.283,101.712 184.5,103.5C 184.957,104.298 185.624,104.631 186.5,104.5C 186.385,106.947 185.385,108.947 183.5,110.5C 182.041,110.433 180.708,110.766 179.5,111.5C 176.854,110.836 174.021,110.502 171,110.5C 167.724,110.558 164.724,111.224 162,112.5C 161.722,111.584 161.222,110.918 160.5,110.5C 161.045,108.407 161.878,106.407 163,104.5C 166.073,105.617 169.24,105.784 172.5,105C 174.324,104.34 175.657,103.173 176.5,101.5C 178.194,100.473 179.527,99.1392 180.5,97.5C 181.5,97.5 182.5,97.5 183.5,97.5C 183.435,97.9382 183.601,98.2716 184,98.5C 185.94,95.5983 188.44,94.5983 191.5,95.5C 190.74,97.3604 189.74,99.027 188.5,100.5 Z"/></g>
<g><path style="opacity:1" fill="#ddd9de" d="M 188.5,88.5 C 191.848,91.8514 194.848,95.5181 197.5,99.5C 195.143,99.3367 192.81,99.5034 190.5,100C 192.785,101.115 194.118,102.615 194.5,104.5C 194.5,105.167 194.5,105.833 194.5,106.5C 192.678,105.571 191.345,106.238 190.5,108.5C 188.521,110.168 186.188,110.834 183.5,110.5C 185.385,108.947 186.385,106.947 186.5,104.5C 187.345,103.329 188.011,101.995 188.5,100.5C 189.74,99.027 190.74,97.3604 191.5,95.5C 188.44,94.5983 185.94,95.5983 184,98.5C 183.601,98.2716 183.435,97.9382 183.5,97.5C 183.838,95.146 184.338,92.8127 185,90.5C 185.816,89.1772 186.983,88.5106 188.5,88.5 Z"/></g>
<g><path style="opacity:1" fill="#7b797c" d="M 194.5,106.5 C 194.5,107.167 194.5,107.833 194.5,108.5C 192.997,108.165 191.664,108.165 190.5,108.5C 191.345,106.238 192.678,105.571 194.5,106.5 Z"/></g>
<g><path style="opacity:1" fill="#5a535e" d="M 180.5,97.5 C 179.527,99.1392 178.194,100.473 176.5,101.5C 175.657,103.173 174.324,104.34 172.5,105C 169.24,105.784 166.073,105.617 163,104.5C 161.878,106.407 161.045,108.407 160.5,110.5C 158.103,116.934 157.437,116.934 158.5,110.5C 160.739,105.784 162.405,100.784 163.5,95.5C 164.958,91.8166 166.625,88.15 168.5,84.5C 168.833,84.8333 169.167,85.1667 169.5,85.5C 167.93,88.0374 167.097,90.704 167,93.5C 168.793,90.7047 170.96,88.2047 173.5,86C 176.216,83.8489 178.716,84.0155 181,86.5C 181.579,90.2027 181.412,93.8694 180.5,97.5 Z"/></g>
<g><path style="opacity:1" fill="#c6a4dc" d="M 176.5,101.5 C 173.956,103.182 171.123,104.182 168,104.5C 166.027,104.691 164.527,104.024 163.5,102.5C 165.858,96.9787 169.191,92.1453 173.5,88C 175.345,86.872 177.345,86.372 179.5,86.5C 180.133,91.9224 179.133,96.9224 176.5,101.5 Z"/></g>
<g><path style="opacity:1" fill="#cdaed5" d="M 131.5,106.5 C 132.449,108.777 133.782,110.777 135.5,112.5C 140.802,119.476 146.136,126.476 151.5,133.5C 150.769,133.942 149.769,134.109 148.5,134C 149.823,134.816 150.489,135.983 150.5,137.5C 149.167,136.833 148.167,135.833 147.5,134.5C 143.115,129.45 139.115,124.116 135.5,118.5C 135.167,117.5 134.5,116.833 133.5,116.5C 131.727,113.94 129.727,111.607 127.5,109.5C 127.5,109.167 127.5,108.833 127.5,108.5C 128.514,107.326 129.847,106.66 131.5,106.5 Z"/></g>
<g><path style="opacity:1" fill="#aeaaaf" d="M 194.5,108.5 C 195.124,108.917 195.457,109.584 195.5,110.5C 194.336,113.495 193.17,116.495 192,119.5C 189.954,117.3 188.954,114.633 189,111.5C 185.703,114.052 184.87,117.219 186.5,121C 184.534,131.885 182.701,132.052 181,121.5C 179.905,122.693 179.072,124.027 178.5,125.5C 176.958,124.699 175.292,124.366 173.5,124.5C 172.022,124.762 170.689,124.429 169.5,123.5C 169.709,122.914 170.043,122.414 170.5,122C 174.767,121.478 178.267,119.645 181,116.5C 181.507,117.996 181.007,119.163 179.5,120C 182.141,119.873 183.808,118.373 184.5,115.5C 182.257,114.526 179.924,114.192 177.5,114.5C 177.427,112.973 178.094,111.973 179.5,111.5C 180.708,110.766 182.041,110.433 183.5,110.5C 186.188,110.834 188.521,110.168 190.5,108.5C 191.664,108.165 192.997,108.165 194.5,108.5 Z"/></g>
<g><path style="opacity:1" fill="#edc9f8" d="M 127.5,109.5 C 129.727,111.607 131.727,113.94 133.5,116.5C 131.046,116.321 128.879,116.987 127,118.5C 126.228,118.355 125.561,118.022 125,117.5C 125.418,114.705 126.251,112.039 127.5,109.5 Z"/></g>
<g><path style="opacity:1" fill="#f0c8fa" d="M 158.5,110.5 C 157.437,116.934 158.103,116.934 160.5,110.5C 161.222,110.918 161.722,111.584 162,112.5C 164.724,111.224 167.724,110.558 171,110.5C 174.021,110.502 176.854,110.836 179.5,111.5C 178.094,111.973 177.427,112.973 177.5,114.5C 175.073,116.558 172.407,118.391 169.5,120C 165.488,127.17 159.488,131.67 151.5,133.5C 146.136,126.476 140.802,119.476 135.5,112.5C 135.56,111.957 135.893,111.624 136.5,111.5C 137.167,112.167 137.833,112.833 138.5,113.5C 141.828,110.263 144.828,110.93 147.5,115.5C 147.369,116.376 147.702,117.043 148.5,117.5C 149.507,114.81 150.507,112.144 151.5,109.5C 152.378,107.635 154.212,105.969 157,104.5C 157.658,106.108 157.158,107.275 155.5,108C 156.571,108.852 157.571,109.685 158.5,110.5 Z"/></g>
<g><path style="opacity:1" fill="#f4cdfd" d="M 135.5,118.5 C 139.115,124.116 143.115,129.45 147.5,134.5C 145.473,134.338 143.473,134.505 141.5,135C 139.253,137.542 136.586,138.042 133.5,136.5C 134.747,134.958 134.747,133.458 133.5,132C 131.512,131.82 129.512,131.986 127.5,132.5C 129.383,129.367 130.717,125.867 131.5,122C 132.41,120.251 133.743,119.084 135.5,118.5 Z"/></g>
<g><path style="opacity:1" fill="#fbf6fb" d="M 177.5,114.5 C 179.924,114.192 182.257,114.526 184.5,115.5C 183.808,118.373 182.141,119.873 179.5,120C 181.007,119.163 181.507,117.996 181,116.5C 178.267,119.645 174.767,121.478 170.5,122C 170.043,122.414 169.709,122.914 169.5,123.5C 170.689,124.429 172.022,124.762 173.5,124.5C 169.572,131.346 164.906,137.679 159.5,143.5C 158.185,141.684 156.685,140.017 155,138.5C 154.667,139.167 154.333,139.833 154,140.5C 152.961,139.29 151.794,138.29 150.5,137.5C 150.489,135.983 149.823,134.816 148.5,134C 149.769,134.109 150.769,133.942 151.5,133.5C 159.488,131.67 165.488,127.17 169.5,120C 172.407,118.391 175.073,116.558 177.5,114.5 Z"/></g>
<g><path style="opacity:1" fill="#d9d7da" d="M 173.5,124.5 C 175.292,124.366 176.958,124.699 178.5,125.5C 172.164,133.509 165.831,141.509 159.5,149.5C 156.007,145.837 153.007,141.837 150.5,137.5C 151.794,138.29 152.961,139.29 154,140.5C 154.333,139.833 154.667,139.167 155,138.5C 156.685,140.017 158.185,141.684 159.5,143.5C 164.906,137.679 169.572,131.346 173.5,124.5 Z"/></g>
<g><path style="opacity:1" fill="#adaaae" d="M 181.5,166.5 C 181.5,166.833 181.5,167.167 181.5,167.5C 180.18,166.058 178.514,165.392 176.5,165.5C 176.5,167.833 176.5,170.167 176.5,172.5C 175.686,170.369 175.186,168.036 175,165.5C 174.501,169.152 174.335,172.818 174.5,176.5C 173.517,172.702 173.183,168.702 173.5,164.5C 175.857,164.337 178.19,164.503 180.5,165C 181.056,165.383 181.389,165.883 181.5,166.5 Z"/></g>
<g><path style="opacity:1" fill="#afacb0" d="M 106.5,166.5 C 106.5,166.167 106.5,165.833 106.5,165.5C 108.42,164.06 110.087,164.393 111.5,166.5C 110.119,165.768 108.452,165.768 106.5,166.5 Z"/></g>
<g><path style="opacity:1" fill="#686768" d="M 43.5,164.5 C 44.7943,166.048 45.4609,168.048 45.5,170.5C 45.1667,172.5 44.8333,174.5 44.5,176.5C 43.5091,172.555 43.1758,168.555 43.5,164.5 Z"/></g>
<g><path style="opacity:1" fill="#aba7ac" d="M 76.5,166.5 C 76.5,166.167 76.5,165.833 76.5,165.5C 78.4199,164.06 80.0866,164.393 81.5,166.5C 80.1188,165.768 78.4521,165.768 76.5,166.5 Z"/></g>
<g><path style="opacity:1" fill="#848284" d="M 92.5,164.5 C 93.8001,166.223 94.4668,168.39 94.5,171C 94.1667,173.167 93.8333,175.333 93.5,177.5C 92.5078,173.217 92.1744,168.884 92.5,164.5 Z"/></g>
<g><path style="opacity:1" fill="#585859" d="M 106.5,165.5 C 106.5,165.833 106.5,166.167 106.5,166.5C 106.414,167.496 106.748,168.329 107.5,169C 112.575,170.196 113.575,172.696 110.5,176.5C 110.167,176.5 109.833,176.5 109.5,176.5C 110.141,175.518 110.807,174.518 111.5,173.5C 109.462,171.724 107.296,170.057 105,168.5C 104.415,167.002 104.915,166.002 106.5,165.5 Z"/></g>
<g><path style="opacity:1" fill="#f7f5f7" d="M 181.5,167.5 C 181.838,171.151 180.172,172.817 176.5,172.5C 176.5,170.167 176.5,167.833 176.5,165.5C 178.514,165.392 180.18,166.058 181.5,167.5 Z"/></g>
<g><path style="opacity:1" fill="#b5b3b6" d="M 217.5,165.5 C 218.774,167.993 219.44,170.659 219.5,173.5C 217.019,173.323 215.186,174.323 214,176.5C 214.466,172.604 215.632,168.937 217.5,165.5 Z"/></g>
<g><path style="opacity:1" fill="#9e9b9e" d="M 239.5,176.5 C 240.506,176.062 240.506,175.396 239.5,174.5C 240.319,171.695 240.819,168.695 241,165.5C 241.827,169.541 241.66,173.541 240.5,177.5C 239.893,177.376 239.56,177.043 239.5,176.5 Z"/></g>
<g><path style="opacity:1" fill="#767476" d="M 252.5,175.5 C 252.158,176.338 251.492,176.672 250.5,176.5C 250.5,172.5 250.5,168.5 250.5,164.5C 253.187,164.336 255.854,164.503 258.5,165C 256.527,165.495 254.527,165.662 252.5,165.5C 252.5,167.167 252.5,168.833 252.5,170.5C 256.5,170.833 256.5,171.167 252.5,171.5C 252.5,172.833 252.5,174.167 252.5,175.5 Z"/></g>
<g><path style="opacity:1" fill="#bebbbf" d="M 275.5,176.5 C 275.938,176.565 276.272,176.399 276.5,176C 275.619,175.292 274.953,174.458 274.5,173.5C 275.166,170.642 275.833,167.642 276.5,164.5C 277.833,168.833 277.833,173.167 276.5,177.5C 275.893,177.376 275.56,177.043 275.5,176.5 Z"/></g>
<g><path style="opacity:1" fill="#545354" d="M 25.5,165.5 C 26.696,168.421 27.696,171.421 28.5,174.5C 28.8333,175.167 29.1667,175.833 29.5,176.5C 27.0695,174.954 25.7361,172.621 25.5,169.5C 24.3143,168.039 24.3143,166.705 25.5,165.5 Z"/></g>
<g><path style="opacity:1" fill="#545354" d="M 195.5,165.5 C 196.696,168.421 197.696,171.421 198.5,174.5C 200.031,175.925 199.698,176.591 197.5,176.5C 196.833,174.167 196.167,171.833 195.5,169.5C 194.314,168.039 194.314,166.705 195.5,165.5 Z"/></g>
<g><path style="opacity:1" fill="#bcb9bd" d="M 234.5,165.5 C 233.761,165.369 233.094,165.536 232.5,166C 233.381,166.708 234.047,167.542 234.5,168.5C 233.834,171.028 233.168,173.694 232.5,176.5C 231.509,172.555 231.176,168.555 231.5,164.5C 232.791,164.263 233.791,164.596 234.5,165.5 Z"/></g>
<g><path style="opacity:1" fill="#878688" d="M 286.5,165.5 C 292.567,164.285 294.234,164.285 291.5,165.5C 290.833,180.167 290.167,180.167 289.5,165.5C 288.5,165.5 287.5,165.5 286.5,165.5 Z"/></g>
<g><path style="opacity:1" fill="#585759" d="M 76.5,165.5 C 76.5,165.833 76.5,166.167 76.5,166.5C 76.4142,167.496 76.7476,168.329 77.5,169C 80.182,169.163 81.8487,170.496 82.5,173C 82.6134,174.699 81.9468,175.866 80.5,176.5C 80.5,176.167 80.5,175.833 80.5,175.5C 81.3029,174.577 81.4696,173.577 81,172.5C 78.3434,171.427 76.1768,169.76 74.5,167.5C 74.8555,166.478 75.5222,165.811 76.5,165.5 Z"/></g>
<g><path style="opacity:1" fill="#aca9ac" d="M 156.5,164.5 C 159.247,164.187 161.914,164.52 164.5,165.5C 162.955,166.452 161.288,166.785 159.5,166.5C 159.5,167.833 159.5,169.167 159.5,170.5C 163.5,170.833 163.5,171.167 159.5,171.5C 159.5,172.833 159.5,174.167 159.5,175.5C 161.288,175.215 162.955,175.548 164.5,176.5C 161.966,177.777 159.466,177.777 157,176.5C 156.501,172.514 156.334,168.514 156.5,164.5 Z"/></g>
<g><path style="opacity:1" fill="#949295" d="M 195.5,165.5 C 194.314,166.705 194.314,168.039 195.5,169.5C 194.686,171.631 194.186,173.964 194,176.5C 193.173,172.459 193.34,168.459 194.5,164.5C 195.107,164.624 195.44,164.957 195.5,165.5 Z"/></g>
<g><path style="opacity:1" fill="#9c999c" d="M 269.5,165.5 C 268.494,165.938 268.494,166.604 269.5,167.5C 268.681,170.305 268.181,173.305 268,176.5C 267.173,172.459 267.34,168.459 268.5,164.5C 269.107,164.624 269.44,164.957 269.5,165.5 Z"/></g>
<g><path style="opacity:1" fill="#949194" d="M 25.5,165.5 C 24.3143,166.705 24.3143,168.039 25.5,169.5C 24.6862,171.631 24.1862,173.964 24,176.5C 23.1735,172.459 23.3401,168.459 24.5,164.5C 25.1067,164.624 25.44,164.957 25.5,165.5 Z"/></g>
<g><path style="opacity:1" fill="#585859" d="M 269.5,165.5 C 271.653,167.794 273.32,170.46 274.5,173.5C 274.953,174.458 275.619,175.292 276.5,176C 276.272,176.399 275.938,176.565 275.5,176.5C 273.265,173.709 271.265,170.709 269.5,167.5C 268.494,166.604 268.494,165.938 269.5,165.5 Z"/></g>
<g><path style="opacity:1" fill="#6e6d6f" d="M 31.5,169.5 C 31.3832,167.516 32.0499,165.85 33.5,164.5C 34.8333,168.5 34.8333,172.5 33.5,176.5C 32.8319,174.031 32.1653,171.698 31.5,169.5 Z"/></g>
<g><path style="opacity:1" fill="#737173" d="M 138.5,164.5 C 143.196,163.414 146.196,165.081 147.5,169.5C 146.531,172.987 144.198,174.32 140.5,173.5C 140.719,174.675 140.386,175.675 139.5,176.5C 138.509,172.555 138.176,168.555 138.5,164.5 Z"/></g>
<g><path style="opacity:1" fill="#f8f5f8" d="M 140.5,165.5 C 144.935,165.752 146.268,167.919 144.5,172C 143.207,172.49 141.873,172.657 140.5,172.5C 140.5,170.167 140.5,167.833 140.5,165.5 Z"/></g>
<g><path style="opacity:1" fill="#686668" d="M 202.5,171.5 C 202.5,169.833 202.5,168.167 202.5,166.5C 202.369,165.624 202.702,164.957 203.5,164.5C 204.833,168.5 204.833,172.5 203.5,176.5C 202.548,174.955 202.215,173.288 202.5,171.5 Z"/></g>
<g><path style="opacity:1" fill="#686769" d="M 56.5,165.5 C 58.1997,168.295 60.6997,170.295 64,171.5C 64.3423,176.152 62.1756,177.986 57.5,177C 64.0375,174.522 63.8708,172.022 57,169.5C 56.51,168.207 56.3433,166.873 56.5,165.5 Z"/></g>
<g><path style="opacity:1" fill="#bfbcc0" d="M 202.5,166.5 C 202.5,168.167 202.5,169.833 202.5,171.5C 200.926,173.102 200.259,175.102 200.5,177.5C 199.209,177.737 198.209,177.404 197.5,176.5C 199.698,176.591 200.031,175.925 198.5,174.5C 200.025,171.921 201.359,169.254 202.5,166.5 Z"/></g>
<g><path style="opacity:1" fill="#595859" d="M 234.5,165.5 C 236.42,168.339 238.087,171.339 239.5,174.5C 240.506,175.396 240.506,176.062 239.5,176.5C 237.847,173.869 236.181,171.203 234.5,168.5C 234.047,167.542 233.381,166.708 232.5,166C 233.094,165.536 233.761,165.369 234.5,165.5 Z"/></g>
<g><path style="opacity:1" fill="#afadb0" d="M 31.5,169.5 C 31.5905,172.152 30.9238,174.485 29.5,176.5C 29.1667,175.833 28.8333,175.167 28.5,174.5C 29.6873,172.928 30.6873,171.261 31.5,169.5 Z"/></g>
<g><path style="opacity:1" fill="#b1afb2" d="M 109.5,176.5 C 109.833,176.5 110.167,176.5 110.5,176.5C 109.054,177.613 107.387,177.78 105.5,177C 103.993,176.163 103.493,174.996 104,173.5C 105.264,175.607 107.097,176.607 109.5,176.5 Z"/></g>
<g><path style="opacity:1" fill="#656466" d="M 176.5,172.5 C 180.172,172.817 181.838,171.151 181.5,167.5C 181.5,167.167 181.5,166.833 181.5,166.5C 182.695,166.866 183.361,167.699 183.5,169C 181.023,174.595 183.023,177.929 189.5,179C 188.407,180.365 187.074,180.699 185.5,180C 183.045,176.36 179.711,174.193 175.5,173.5C 175.737,174.791 175.404,175.791 174.5,176.5C 174.335,172.818 174.501,169.152 175,165.5C 175.186,168.036 175.686,170.369 176.5,172.5 Z"/></g>
<g><path style="opacity:1" fill="#605f60" d="M 217.5,165.5 C 218.376,165.369 219.043,165.702 219.5,166.5C 221.179,169.842 221.846,173.175 221.5,176.5C 220.824,175.398 220.158,174.398 219.5,173.5C 219.44,170.659 218.774,167.993 217.5,165.5 Z"/></g>
<g><path style="opacity:1" fill="#a8a5a9" d="M 80.5,175.5 C 80.5,175.833 80.5,176.167 80.5,176.5C 77.6333,178.121 75.3,177.454 73.5,174.5C 73.6667,174.167 73.8333,173.833 74,173.5C 75.6213,176.321 77.788,176.987 80.5,175.5 Z"/></g>
<g><path style="opacity:1" fill="#bcb9bd" d="M 252.5,175.5 C 254.604,175.201 256.604,175.534 258.5,176.5C 255.691,177.8 253.024,177.8 250.5,176.5C 251.492,176.672 252.158,176.338 252.5,175.5 Z"/></g>
<g><path style="opacity:1" fill="#8f8b90" d="M 134.5,189.5 C 134.461,188.244 134.961,187.244 136,186.5C 136.585,187.998 136.085,188.998 134.5,189.5 Z"/></g>
<g><path style="opacity:1" fill="#939194" d="M 140.5,196.5 C 140.899,193.304 141.899,190.304 143.5,187.5C 143.833,187.667 144.167,187.833 144.5,188C 143.286,190.351 142.452,192.851 142,195.5C 141.617,196.056 141.117,196.389 140.5,196.5 Z"/></g>
<g><path style="opacity:1" fill="#79787a" d="M 164.5,189.5 C 165.239,189.369 165.906,189.536 166.5,190C 164.543,194.036 162.876,198.203 161.5,202.5C 157.602,199.873 157.936,197.54 162.5,195.5C 163.747,193.677 164.414,191.677 164.5,189.5 Z"/></g>
<g><path style="opacity:1" fill="#828083" d="M 126.5,187.5 C 127.124,187.917 127.457,188.584 127.5,189.5C 126.936,191.819 126.436,194.153 126,196.5C 125.505,193.469 125.671,190.469 126.5,187.5 Z"/></g>
<g><path style="opacity:1" fill="#8b898c" d="M 197.5,187.5 C 198.043,187.56 198.376,187.893 198.5,188.5C 196.885,192.063 195.552,195.73 194.5,199.5C 196.305,201.86 195.805,203.527 193,204.5C 193.16,198.515 194.66,192.848 197.5,187.5 Z"/></g>
<g><path style="opacity:1" fill="#8c8a8d" d="M 134.5,189.5 C 133.538,192.757 132.038,195.757 130,198.5C 130.418,194.997 131.918,191.997 134.5,189.5 Z"/></g>
<g><path style="opacity:1" fill="#767476" d="M 90.5,189.5 C 91.5064,190.979 91.5064,192.646 90.5,194.5C 90.5288,196.029 91.1955,197.196 92.5,198C 91.7809,200.556 90.1142,201.723 87.5,201.5C 88.0901,197.397 89.0901,193.397 90.5,189.5 Z"/></g>
<g><path style="opacity:1" fill="#838284" d="M 148.5,196.5 C 150.57,197.226 152.237,197.892 153.5,198.5C 151.977,200.283 149.977,200.949 147.5,200.5C 147.433,199.041 147.766,197.708 148.5,196.5 Z"/></g>
<g><path style="opacity:1" fill="#868587" d="M 173.5,201.5 C 173.631,200.761 173.464,200.094 173,199.5C 171.817,200.731 170.651,200.731 169.5,199.5C 171.029,198.716 172.696,197.716 174.5,196.5C 175.634,198.439 175.3,200.105 173.5,201.5 Z"/></g>
<g><path style="opacity:1" fill="#858386" d="M 183.5,195.5 C 185.549,195.706 185.883,196.539 184.5,198C 185.833,198 187.167,198 188.5,198C 186.465,200.315 184.132,201.148 181.5,200.5C 182.025,199.808 182.692,199.308 183.5,199C 182.316,197.855 182.316,196.688 183.5,195.5 Z"/></g>
<g><path style="opacity:1" fill="#737274" d="M 203.5,196.5 C 204.75,196.577 205.583,197.244 206,198.5C 209.031,197.774 208.864,198.441 205.5,200.5C 204.575,199.359 203.741,199.359 203,200.5C 202.421,199.072 202.588,197.738 203.5,196.5 Z"/></g>
<g><path style="opacity:1" fill="#969496" d="M 214.5,195.5 C 216.155,196.93 218.155,197.764 220.5,198C 218.453,199.073 216.453,200.239 214.5,201.5C 213.306,199.484 213.306,197.484 214.5,195.5 Z"/></g>
<g><path style="opacity:1" fill="#79787a" d="M 226.5,196.5 C 231.625,196.615 232.292,197.948 228.5,200.5C 227.575,199.359 226.741,199.359 226,200.5C 225.421,199.072 225.588,197.738 226.5,196.5 Z"/></g>
<g><path style="opacity:1" fill="#868487" d="M 140.5,196.5 C 140.714,198.144 140.38,199.644 139.5,201C 141.654,202.184 141.32,203.35 138.5,204.5C 138.167,204.167 137.833,203.833 137.5,203.5C 138.33,200.984 139.33,198.65 140.5,196.5 Z"/></g>
<g><path style="opacity:1" fill="#918f92" d="M 124.5,197.5 C 125.309,199.292 125.809,201.292 126,203.5C 126.654,202.304 127.154,202.304 127.5,203.5C 126.974,205.23 125.974,206.564 124.5,207.5C 123.808,204.23 123.808,200.897 124.5,197.5 Z"/></g>
<g><path style="opacity:1" fill="#949295" d="M 102.5,196.5 C 103.097,196.735 103.43,197.235 103.5,198C 102.349,202.982 100.349,207.482 97.5,211.5C 96.2559,206.973 97.5893,203.306 101.5,200.5C 100.384,200.598 99.3839,200.098 98.5,199C 98.6465,197.273 99.3131,197.106 100.5,198.5C 101.522,198.145 102.189,197.478 102.5,196.5 Z"/></g>
<g><path style="opacity:1" fill="#979497" d="M 173.5,201.5 C 173.513,205.137 172.18,208.137 169.5,210.5C 168.351,206.46 169.684,203.46 173.5,201.5 Z"/></g>
</svg>
